<?xml version="1.0" encoding="UTF-8"?>
<svg id="Layer_1" data-name="Layer 1" xmlns="http://www.w3.org/2000/svg" xmlns:xlink="http://www.w3.org/1999/xlink" viewBox="0 0 123.5 102">
  <defs>
    <style>
      .cls-1 {
        fill: #fefefe;
      }

      .cls-1, .cls-2, .cls-3, .cls-4, .cls-5, .cls-6, .cls-7, .cls-8, .cls-9 {
        stroke-width: 0px;
      }

      .cls-2 {
        fill: #0b7986;
      }

      .cls-3 {
        fill: #227292;
      }

      .cls-4 {
        fill: none;
      }

      .cls-5 {
        fill: #097885;
      }

      .cls-6 {
        fill: #e4e8e9;
      }

      .cls-10 {
        clip-path: url(#clippath);
      }

      .cls-7 {
        fill: #e4ebec;
      }

      .cls-8 {
        fill: #0b6488;
      }

      .cls-9 {
        fill: #a53626;
      }
    </style>
    <clipPath id="clippath">
      <rect class="cls-4" width="123.5" height="102"/>
    </clipPath>
  </defs>
  <g class="cls-10">
    <g>
      <path class="cls-1" d="m123.47.52c-.16-.16-.32-.32-.48-.48.42-.09.58.07.48.48Z"/>
      <path class="cls-1" d="m.05,98.24c.16.16.32.32.48.48-.42.09-.58-.07-.48-.48Z"/>
      <path class="cls-1" d="m122.99,98.72c.16-.16.32-.32.48-.48.09.41-.07.57-.48.48Z"/>
      <path class="cls-2" d="m57.39,63.84c4,1.65,4.97,4.56,4.91,8.16-.05,2.82,1.1,3.59,3.75,3,1.13-.25,1.61-.73,1.6-1.93-.04-6.49-.04-12.99,0-19.48,0-1.24-.51-1.8-1.66-1.83-1.96-.06-1.7-1.43-1.74-2.73-.05-1.68,1.1-1.45,2.13-1.45,7.23,0,14.45.04,21.68-.04,1.7-.02,2.32.52,2.16,2.2-.11,1.19-.03,2.4-.03,3.61,0,3.04,0,2.95-3.05,2.96-1.5,0-2.06-.57-1.98-1.95.08-1.48-.65-1.91-2.06-1.84-2.24.1-4.5.08-6.74,0-1.29-.04-1.83.33-1.92,1.73-.4,6.1-.45,6.1,5.59,6.21.88.02,1.77.02,2.65.02,2.92,0,3.69,1.07,2.99,3.93-.26,1.05-.97.9-1.66.91-2.57.02-5.14.07-7.71-.01-1.33-.04-1.79.4-1.87,1.76-.42,7.22-.45,7.22,6.76,7.22.64,0,1.29-.07,1.93.02,1.57.21,2.19-.46,2.17-2-.03-2.71,2.08-1.48,3.35-1.7,1.54-.26,1.58.8,1.61,1.95.17,6.58.19,6.57-6.41,6.57-7.23,0-14.45.02-21.68,0-4.4-.02-6.07-1.7-6.2-6.12-.03-.96-.03-1.93-.17-2.87-.37-2.5-2.11-3.37-4.39-3.66-5.65-.74-5.73-.65-5.78,4.94-.02,1.92-.16,3.6,2.55,3.86,1.45.14.73,1.69.83,2.63.13,1.15-.69,1.24-1.57,1.23-3.45-.02-6.91-.03-10.36,0-1.07.01-1.74-.26-1.62-1.46.1-1.03-.47-2.54,1.3-2.56,2.55-.03,2.62-1.51,2.59-3.47-.1-5.85-.07-11.7,0-17.56.01-1.43-.27-2.33-1.93-2.28-2,.06-1.98-1.29-1.98-2.77,0-1.92,1.35-1.43,2.36-1.42,4.98.02,9.96-.08,14.93.2,5.61.31,9.06,3.67,9.35,8.51.2,3.36-1.52,5.6-4.68,7.53Zm-11.81-6.91q0,5.04,5.14,4.53c.63-.06,1.25-.24,1.88-.32,1.74-.24,2.71-1.32,3.06-2.93.38-1.74.06-3.4-1.38-4.57-1.15-.94-2.62-1.13-4.07-1.12-5.65.04-4.51-.66-4.64,4.41Z"/>
      <path class="cls-8" d="m52.33,16.77c-9.17,6.39-18.33,12.79-27.51,19.17-3.09,2.15-6.22,4.24-9.34,6.33-.45.3-.99.67-1.5.68-2.6.07-5.21.03-8.03.03.8-1.71,2.33-1.85,3.38-2.6,8.82-6.27,17.67-12.5,26.56-18.68,8.02-5.58,16.11-11.05,24.12-16.64,1.09-.76,1.78-.57,2.75.12,5.83,4.11,11.69,8.17,17.55,12.24,10.59,7.36,21.18,14.72,31.78,22.06,1.48,1.02,3.26,1.61,4.8,3.5-4.46-.21-8.34.75-12.15-2.26-6.41-5.05-13.31-9.49-20.03-14.14-7.31-5.05-14.66-10.04-21.98-15.08-.86-.59-1.58-.95-2.57-.17-2.15,1.67-4.37,3.25-6.57,4.87-.52-.03-1.01.02-1.26.57Z"/>
      <path class="cls-2" d="m99.25,48.37c5.72-1.99,11.21-1.61,16.35,1.7,1.98,1.28,3.14,5.39,2.1,7.47-.75,1.5-2.3.53-3.47.73-.95.17-1.81-.06-1.85-1.28-.08-2.3-.89-3.99-3.37-4.57-2.79-.65-5.51-.62-7.77,1.29-5.61,4.74-5.45,14.71.05,19.37,2.33,1.97,7.05,2.06,9.58.44,1.23-.79,1.28-2,1.38-3.15.26-3.04,2.56-1.65,4.04-1.86,1.84-.27,1.49,1.18,1.52,2.25.12,4,.87,5.07-6,7.72-8.82,3.4-18.42-1.15-20.37-9.89-1.72-7.71-.52-14.71,6.46-19.7.55.06,1.03-.02,1.34-.54Z"/>
      <path class="cls-5" d="m13.03,78.52c0-1.85-.03-3.68,2.62-3.75.81-.02.88-.79.87-1.45-.04-2.6-.08-5.21-.12-7.81,0-.48,0-.97,0-1.45.04-3.28.06-6.57.14-9.85.03-1.23-.4-1.77-1.67-1.69-1.98.12-4.27-.88-4.55,2.75-.12,1.52-2.64.57-4.06.69-1.21.1-1.04-.93-1.08-1.71,0-.08,0-.16,0-.24q-.17-6.45,6.29-6.43c6.83,0,13.65.07,20.48-.05,1.98-.04,2.59.63,2.38,2.48-.12,1.03-.02,2.08-.03,3.12,0,3.02,0,2.96-3.11,2.91-1.31-.02-1.83-.42-1.93-1.76-.26-3.27-2.81-1.31-4.29-1.7-1.51-.4-1.61.81-1.61,1.93.02,6.09.06,12.19.02,18.28-.01,1.37.4,2.13,1.81,2.25,2,.17,1.53,1.69,1.52,2.9-.01,1.57-1.26,1.15-2.13,1.16-3.69.05-7.39.05-11.08.06-.15-.21-.31-.43-.46-.64Z"/>
      <path class="cls-3" d="m102.85,43.12c-1.19-.09-2.4-.03-3.46-.73-.57-.9-1.65-.91-2.45-1.41-.34-.51-.83-.81-1.4-1-.35-.54-.81-.91-1.47-1-5.3-4.56-11.38-8.02-17.02-12.09-4.68-3.37-9.5-6.56-14.19-9.91-1.17-.84-1.99-.83-3.17.01-6.72,4.8-13.4,9.66-20.29,14.22-5.22,3.46-10.24,7.17-15.35,10.76-1.29.9-2.61,1.41-4.32.9,1.14-1.74,2.94-2.18,4.35-3.17,7.34-5.17,14.78-10.21,22.01-15.53,4.48-3.3,9.36-6,13.72-9.45,1.2-.95,2.02-.68,3.15.12,6.29,4.43,12.63,8.77,18.96,13.14.33.6.86.83,1.52.77,6.27,4.81,12.74,9.33,19.39,13.6,0,.25,0,.5,0,.76Z"/>
      <path class="cls-9" d="m61.62,21.56c.6,1.82,1.3,3.61,1.76,5.47.39,1.6,1.13,2.25,2.84,2.12,2.12-.16,4.25-.04,7-.04-2.06,1.71-3.54,3.01-5.37,3.84-1.53.69-2.29,1.63-1.44,3.38.69,1.42.7,3.11,1.85,4.37.26.29.4,1.05.21,1.31-.49.65-1,.02-1.41-.27-1.18-.83-2.43-1.6-3.47-2.58-1.55-1.46-2.86-1.61-4.49-.06-1.3,1.24-2.89,2.18-4.73,2.95.65-2.04,1.25-4.1,1.99-6.11.44-1.2.12-1.87-.86-2.62-1.76-1.36-4-2.02-5.63-3.93,2.08-.53,4.06-.33,5.98-.23,2,.11,3.12-.42,3.54-2.51.36-1.76,1.09-3.45,1.65-5.17.2.03.39.05.59.08Z"/>
      <path class="cls-8" d="m66.57,85.53c-1.76-.29-3.52-.29-5.29,0-.33,0-.65,0-.98,0-3.53-.06-7.05-.17-10.58-.17-13.41-.02-26.83,0-40.24,0-.56,0-1.13.03-1.69-.01-.67-.05-1.65.24-1.71-.81-.06-1.1.92-.86,1.59-.9.72-.04,1.45-.01,2.17-.01,11.81-.01,23.61-.03,35.42-.04.39.2.78.2,1.16,0,23.03.01,46.06.02,69.1.03.39,0,.79-.11,1.18-.17.5.1.99.2,1.49.29.27,1.83-1.01,1.62-2.14,1.62-8.03,0-16.06-.01-24.1,0-2.97,0-5.94.03-8.91.04-.37,0-.74,0-1.12,0-4.79.03-9.59-.25-14.38.14-.33,0-.66,0-.98,0Z"/>
      <path class="cls-7" d="m16.39,64.06c0,.48,0,.97,0,1.45-.49-.07-.9-.23-.82-.84.06-.47.44-.55.82-.62Z"/>
      <path class="cls-7" d="m13.03,78.52c.15.21.31.43.46.64-.21.04-.51.19-.61.11-.33-.28-.16-.55.15-.75Z"/>
      <path class="cls-6" d="m87.29,93.03c-.11.13-.22.26-.32.39,0-.21.02-.41.03-.62.1.08.2.15.3.23Z"/>
      <path class="cls-6" d="m88.62,93.42c-.1-.12-.21-.25-.31-.37.1-.07.19-.15.29-.22,0,.2.02.4.02.6Z"/>
    </g>
  </g>
</svg>